<svg id="Calque_1" data-name="Calque 1" xmlns="http://www.w3.org/2000/svg" xmlns:xlink="http://www.w3.org/1999/xlink" viewBox="0 0 140 162.27"><defs><style>.cls-1{fill:url(#radial-gradient);}.cls-2{fill:url(#radial-gradient-2);}.cls-3{fill:url(#radial-gradient-3);}.cls-4{fill:#fff;}.cls-5{fill:none;}</style><radialGradient id="radial-gradient" cx="1407.75" cy="775.65" r="69.91" gradientTransform="translate(1964.98 -157.74) rotate(135)" gradientUnits="userSpaceOnUse"><stop offset="0" stop-color="#003e90"/><stop offset="0.18" stop-color="#004394"/><stop offset="0.4" stop-color="#0051a0"/><stop offset="0.63" stop-color="#0069b4"/><stop offset="0.87" stop-color="#008acf"/><stop offset="1" stop-color="#009ee0"/></radialGradient><radialGradient id="radial-gradient-2" cx="1407.55" cy="775.59" r="70.01" xlink:href="#radial-gradient"/><radialGradient id="radial-gradient-3" cx="1407.55" cy="775.59" r="70.01" xlink:href="#radial-gradient"/></defs><path class="cls-1" d="M411.92,376.26l-.39-.33Z" transform="translate(-351.28 -219.12)"/><path class="cls-2" d="M411.53,375.93l.39.33-.39-.33c-1.58-1.32,3,2.65,3,2.65l0,0,0,0a9.46,9.46,0,0,0,13.34,0s5.44-4.79,13-11.67H401.4C406.87,371.93,410.37,375,411.53,375.93Z" transform="translate(-351.28 -219.12)"/><path class="cls-3" d="M470.79,239.62a70,70,0,0,0-100.51,97.43l0,0s.43.37,1,1c9.44,9.45,17.53,17.21,24,23.21h51.89c7.14-6.58,15.19-14.17,22.13-21.13l3.05-3,0,0A70,70,0,0,0,470.79,239.62Z" transform="translate(-351.28 -219.12)"/><path class="cls-4" d="M380,278.62h7.51v26.51H380Z" transform="translate(-351.28 -219.12)"/><path class="cls-4" d="M392.82,278.62h7.51v26.51h-7.51Z" transform="translate(-351.28 -219.12)"/><path class="cls-4" d="M423.68,298.16c0,2.9.09,5.23.17,7h-6.47l-.34-2.7h-.12a7.06,7.06,0,0,1-6.18,3.16c-4.56,0-7.26-2.95-7.26-8.84v-12H411v10.83c0,2.61.83,4,2.61,4a2.53,2.53,0,0,0,2.41-1.74,2.89,2.89,0,0,0,.16-1.08v-12h7.51Z" transform="translate(-351.28 -219.12)"/><path class="cls-4" d="M434,284.72l1.62,3c.53,1,1,2,1.49,2.9h.13c.45-1.08.87-2.07,1.32-3l1.37-2.9H448l-6.6,9.67,6.64,10.74h-8.46L438,301.85a23.73,23.73,0,0,1-1.33-2.94h-.12c-.46,1.08-.91,2-1.29,2.94l-1.49,3.28h-8.17l6.76-10.41-6.68-10Z" transform="translate(-351.28 -219.12)"/><path class="cls-5" d="M453,305.59a4.3,4.3,0,1,1,.05,0Z" transform="translate(-351.28 -219.12)"/><path class="cls-4" d="M410.24,274c.25,1.62,2.62,2.53,5.27,2.53a18.07,18.07,0,0,0,5.56-.79l.95,5a20.94,20.94,0,0,1-7.63,1.29c-7.18,0-11.24-3.94-11.24-10.41,0-4.73,3.07-10.87,10.58-10.87,6.59,0,9.42,4.85,9.42,10.45a12.8,12.8,0,0,1-.3,2.82Zm6-5.06c0-1.16-.54-3.32-2.91-3.32-2.2,0-3.07,2-3.19,3.32Z" transform="translate(-351.28 -219.12)"/><path class="cls-4" d="M425.75,268.13c0-2.73-.08-5.06-.16-7h6.47l.33,2.62h.12a7.43,7.43,0,0,1,6.14-3.07c4.78,0,7.39,3.23,7.39,8.83v12h-7.51V270.46c0-2.37-.79-3.74-2.61-3.74a2.57,2.57,0,0,0-2.45,1.79,4,4,0,0,0-.21,1.49v11.57h-7.51Z" transform="translate(-351.28 -219.12)"/><path class="cls-4" d="M468,276.6l0,5h-6.45l-.37-1.78h-.17a7.17,7.17,0,0,1-5.64,2.24,6.41,6.41,0,0,1-6.76-6.43c0-5.47,4.94-7.92,11.86-7.92v-.17c0-.83-.62-1.74-3.36-1.74a12.91,12.91,0,0,0-5.76,1.49l-1.29-4.69a18.24,18.24,0,0,1,8.46-1.86c7,0,9.46,3.89,9.46,9Zm-7.26-4.36c-3.07,0-4.77.83-4.77,2.65a1.86,1.86,0,0,0,2.12,1.95,2.78,2.78,0,0,0,2.57-1.86,4.78,4.78,0,0,0,.08-1.08Z" transform="translate(-351.28 -219.12)"/><path class="cls-4" d="M380,252.29h7.51v11h.09a7,7,0,0,1,5.51-2.61c4.61,0,7.18,3.27,7.18,9v5.89h-7.51v-5.06c0-2.41-.79-3.86-2.65-3.86a2.53,2.53,0,0,0-2.45,1.62,3.83,3.83,0,0,0-.17,1.2v6.1H380Z" transform="translate(-351.28 -219.12)"/><path class="cls-4" d="M421,252.29l-5.1,6.47H410.8l3.53-6.47Z" transform="translate(-351.28 -219.12)"/><path class="cls-4" d="M381.83,313.78v2.45H384v-2.45h1.78v6.61H384v-2.61h-2.14v2.61h-1.78v-6.61Z" transform="translate(-351.28 -219.12)"/><path class="cls-4" d="M388.46,318.86l-.38,1.53h-1.83l1.92-6.61h2.35l2,6.61h-1.92l-.42-1.53Zm1.45-1.3-.3-1.19c-.1-.37-.22-.91-.32-1.3h0c-.1.39-.2.93-.3,1.3l-.28,1.19Z" transform="translate(-351.28 -219.12)"/><path class="cls-4" d="M394.49,313.78v3.76c0,1,.34,1.56,1,1.56s1.05-.51,1.05-1.56v-3.76h1.77v3.65c0,2-1,3.07-2.87,3.07s-2.77-1-2.77-3.11v-3.61Z" transform="translate(-351.28 -219.12)"/><path class="cls-4" d="M400.6,315.27h-1.69v-1.49h5.18v1.49h-1.72v5.12H400.6Z" transform="translate(-351.28 -219.12)"/><path class="cls-4" d="M408.8,317.72h-2.37v1.22h2.66v1.45h-4.43v-6.61H409v1.46h-2.52v1.05h2.37Z" transform="translate(-351.28 -219.12)"/><path class="cls-4" d="M415.67,317.72H413.3v1.22H416v1.45h-4.43v-6.61h4.3v1.46H413.3v1.05h2.37Zm-.18-5.52-1.17,1.23h-1.41l.79-1.23Z" transform="translate(-351.28 -219.12)"/><path class="cls-4" d="M421.63,320.21a4.09,4.09,0,0,1-1.65.28c-2.47,0-3.56-1.54-3.56-3.29a3.39,3.39,0,0,1,3.67-3.51,4.15,4.15,0,0,1,1.65.28l-.34,1.4a3.2,3.2,0,0,0-1.23-.23,1.94,1.94,0,0,0,0,3.88,3.64,3.64,0,0,0,1.18-.19Z" transform="translate(-351.28 -219.12)"/><path class="cls-4" d="M424.93,320.5a3.12,3.12,0,0,1-3.18-3.37,3.24,3.24,0,0,1,3.29-3.45,3.1,3.1,0,0,1,3.2,3.34,3.16,3.16,0,0,1-3.3,3.48Zm.09-1.4c.85,0,1.35-.83,1.35-2s-.51-2-1.37-2-1.38.86-1.38,2,.52,2,1.38,2Z" transform="translate(-351.28 -219.12)"/><path class="cls-4" d="M428.94,313.78h1.77v5.13h2.54v1.48h-4.31Z" transform="translate(-351.28 -219.12)"/><path class="cls-4" d="M438,317.72h-2.37v1.22h2.65v1.45h-4.42v-6.61h4.29v1.46h-2.52v1.05H438Z" transform="translate(-351.28 -219.12)"/><path class="cls-4" d="M441,313.88a3.51,3.51,0,0,1,1-.13,2.23,2.23,0,0,1,1.55.5,3.45,3.45,0,0,1,.89,2.68,4,4,0,0,1-.79,2.79,2.36,2.36,0,0,1-1.82.71,4.22,4.22,0,0,1-.85-.07Zm.76,5.9a1.58,1.58,0,0,0,.28,0c.84,0,1.64-.6,1.64-2.85,0-1.67-.51-2.58-1.57-2.58a1.34,1.34,0,0,0-.35,0Z" transform="translate(-351.28 -219.12)"/><path class="cls-4" d="M447.74,317.25h-1.66v2.48H448v.66h-2.63v-6.61h2.52v.66h-1.77v2.18h1.66Z" transform="translate(-351.28 -219.12)"/><path class="cls-4" d="M380,330.71v-6.6h.71L382,327.2c.28.72.62,1.59.85,2.31h0c-.06-1-.09-1.89-.09-3v-2.36h.67v6.6h-.7l-1.26-3.17a23.28,23.28,0,0,1-.79-2.25h0c.06.88.08,1.73.08,3.14v2.28Z" transform="translate(-351.28 -219.12)"/><path class="cls-4" d="M385.39,328.73l-.43,2h-.74l1.51-6.6h.83l1.47,6.6h-.74l-.43-2Zm1.36-.61-.34-1.67c-.1-.47-.19-1-.27-1.51h0c-.07.5-.17,1.07-.27,1.52l-.34,1.66Z" transform="translate(-351.28 -219.12)"/><path class="cls-4" d="M392.79,327.87c-.05-.87-.1-1.84-.07-2.59h0c-.14.74-.32,1.53-.53,2.3l-.8,3.09h-.49l-.77-3c-.22-.85-.41-1.66-.55-2.43h0c0,.78,0,1.7-.07,2.64l-.13,2.79h-.68l.4-6.6h.82l.76,3c.23.88.4,1.53.53,2.28h0c.13-.75.28-1.38.49-2.28l.75-3h.84l.38,6.6h-.7Z" transform="translate(-351.28 -219.12)"/><path class="cls-4" d="M395.41,324.11v4.43c0,1.18.4,1.58.89,1.58s.92-.43.92-1.58v-4.43H398v4.31c0,1.71-.71,2.37-1.69,2.37s-1.63-.65-1.63-2.28v-4.4Z" transform="translate(-351.28 -219.12)"/><path class="cls-4" d="M399.15,324.21a4.18,4.18,0,0,1,1.09-.13,2,2,0,0,1,1.48.47,1.74,1.74,0,0,1,.47,1.29,1.76,1.76,0,0,1-1.06,1.71v0c.49.14.74.62.88,1.48a9,9,0,0,0,.38,1.66h-.76a8.27,8.27,0,0,1-.36-1.62c-.14-.92-.43-1.25-1.07-1.25h-.3v2.87h-.75Zm.75,3h.32a1.2,1.2,0,0,0,1.2-1.32c0-.75-.31-1.23-1.13-1.24a1.51,1.51,0,0,0-.39,0Z" transform="translate(-351.28 -219.12)"/><path class="cls-4" d="M405,327.86v.58h-2.14v-.58Z" transform="translate(-351.28 -219.12)"/><path class="cls-4" d="M405.85,324.11h.76v6h1.85v.63h-2.61Z" transform="translate(-351.28 -219.12)"/><path class="cls-4" d="M410,324.11v6.6h-.75v-6.6Z" transform="translate(-351.28 -219.12)"/><path class="cls-4" d="M412,322.7l.92,1.05h-.59l-1.22-1.05Zm1.56,4.88h-1.66v2.48h1.89v.65h-2.64v-6.6h2.52v.65h-1.77v2.18h1.66Z" transform="translate(-351.28 -219.12)"/><path class="cls-4" d="M417.9,330.55a3.58,3.58,0,0,1-1.17.22,2,2,0,0,1-1.56-.64,3.8,3.8,0,0,1-.79-2.63c0-2.58,1.32-3.45,2.49-3.45a2,2,0,0,1,.93.19l-.17.64a1.59,1.59,0,0,0-.75-.15c-.83,0-1.72.65-1.72,2.7s.78,2.69,1.57,2.69a1.1,1.1,0,0,0,.46-.07v-2.16h-.85v-.63h1.56Z" transform="translate(-351.28 -219.12)"/><path class="cls-4" d="M421.34,327.58h-1.66v2.48h1.88v.65h-2.63v-6.6h2.52v.65h-1.77v2.18h1.66Z" transform="translate(-351.28 -219.12)"/><path class="cls-4" d="M424.25,327.86v.58h-2.14v-.58Z" transform="translate(-351.28 -219.12)"/><path class="cls-4" d="M425.13,324.11h.76v6h1.85v.63h-2.61Z" transform="translate(-351.28 -219.12)"/><path class="cls-4" d="M429,324.11v4.43c0,1.18.4,1.58.89,1.58s.92-.43.92-1.58v-4.43h.76v4.31c0,1.71-.71,2.37-1.69,2.37s-1.63-.65-1.63-2.28v-4.4Z" transform="translate(-351.28 -219.12)"/><path class="cls-4" d="M435,330.71l-.6-1.58c-.14-.37-.26-.71-.41-1.16h0c-.15.44-.27.82-.39,1.17l-.57,1.57h-.77l1.35-3.37-1.31-3.23h.78l.6,1.53c.12.3.23.61.38,1.05h0c.16-.46.26-.76.36-1.08l.54-1.5h.77l-1.3,3.21,1.36,3.39Z" transform="translate(-351.28 -219.12)"/><path class="cls-4" d="M438.94,327.58h-1.65v2.48h1.88v.65h-2.64v-6.6h2.52v.65h-1.76v2.18h1.65Z" transform="translate(-351.28 -219.12)"/><path class="cls-4" d="M444,327.87c-.05-.87-.1-1.84-.07-2.59h0c-.15.74-.33,1.53-.54,2.3l-.8,3.09h-.49l-.76-3c-.23-.85-.42-1.66-.55-2.43h0c0,.78,0,1.7-.08,2.64l-.13,2.79h-.67l.39-6.6h.82l.77,3c.22.88.39,1.53.52,2.28h0c.13-.75.28-1.38.49-2.28l.75-3h.84l.38,6.6h-.7Z" transform="translate(-351.28 -219.12)"/><path class="cls-4" d="M445.88,324.21a4.45,4.45,0,0,1,1.11-.13,2.1,2.1,0,0,1,1.45.45,1.51,1.51,0,0,1,.44,1.14,1.55,1.55,0,0,1-1,1.47v0a1.61,1.61,0,0,1,1.22,1.68,1.89,1.89,0,0,1-.47,1.31,2.25,2.25,0,0,1-1.74.59,5.2,5.2,0,0,1-1-.07Zm.75,2.71H447a1.14,1.14,0,0,0,1.14-1.17,1,1,0,0,0-1.09-1.08,1.9,1.9,0,0,0-.4,0Zm0,3.2a1.76,1.76,0,0,0,.38,0,1.2,1.2,0,0,0,1.29-1.32,1.27,1.27,0,0,0-1.34-1.35h-.33Z" transform="translate(-351.28 -219.12)"/><path class="cls-4" d="M451.52,330.79c-1.1,0-1.84-1.17-1.84-3.39s.8-3.37,1.94-3.37,1.81,1.22,1.81,3.33c0,2.47-.85,3.43-1.9,3.43Zm.06-.67c.84,0,1.06-1.44,1.06-2.73s-.22-2.69-1.07-2.69-1.1,1.45-1.1,2.7.24,2.72,1.1,2.72Z" transform="translate(-351.28 -219.12)"/><path class="cls-4" d="M455.08,324.11v4.43c0,1.18.4,1.58.89,1.58s.92-.43.92-1.58v-4.43h.75v4.31c0,1.71-.7,2.37-1.68,2.37s-1.64-.65-1.64-2.28v-4.4Z" transform="translate(-351.28 -219.12)"/><path class="cls-4" d="M458.81,324.21a4.28,4.28,0,0,1,1.09-.13,2,2,0,0,1,1.49.47,1.78,1.78,0,0,1,.46,1.29,1.75,1.75,0,0,1-1.06,1.71v0c.49.14.75.62.88,1.48a8.66,8.66,0,0,0,.39,1.66h-.77a8.54,8.54,0,0,1-.35-1.62c-.15-.92-.43-1.25-1.08-1.25h-.29v2.87h-.76Zm.76,3h.31a1.2,1.2,0,0,0,1.21-1.32c0-.75-.32-1.23-1.13-1.24a1.46,1.46,0,0,0-.39,0Z" transform="translate(-351.28 -219.12)"/><path class="cls-4" d="M466.07,330.55a3.58,3.58,0,0,1-1.17.22,2,2,0,0,1-1.56-.64,3.8,3.8,0,0,1-.79-2.63c0-2.58,1.32-3.45,2.49-3.45a2,2,0,0,1,.93.19l-.17.64a1.56,1.56,0,0,0-.75-.15c-.82,0-1.72.65-1.72,2.7s.78,2.69,1.57,2.69a1.1,1.1,0,0,0,.46-.07v-2.16h-.85v-.63h1.56Z" transform="translate(-351.28 -219.12)"/></svg>